<svg xmlns="http://www.w3.org/2000/svg" width="1200" height="630" viewBox="0 0 1200 630">
  <rect width="1200" height="630" fill="#0a0e14"/>
  <rect x="48" y="48" width="1104" height="534" rx="28" fill="#141a26" stroke="#242b3d" stroke-width="2"/>
  <circle cx="92" cy="92" r="7" fill="#ffb547"/>
  <text x="116" y="101" fill="#e8ecf3" font-family="IBM Plex Sans, Inter, Arial, sans-serif" font-size="28" font-weight="600">A2CN</text>
  <text x="92" y="202" fill="#e8ecf3" font-family="IBM Plex Sans, Inter, Arial, sans-serif" font-size="72" font-weight="700">Agents can talk.</text>
  <text x="92" y="288" fill="#e8ecf3" font-family="IBM Plex Sans, Inter, Arial, sans-serif" font-size="72" font-weight="700">Can pay.</text>
  <text x="92" y="374" fill="#ffb547" font-family="IBM Plex Sans, Inter, Arial, sans-serif" font-size="72" font-weight="700">Can't yet negotiate.</text>
  <g transform="translate(92 430)" font-family="IBM Plex Mono, Menlo, monospace" font-size="24" font-weight="600">
    <rect x="0" y="0" width="132" height="54" rx="12" fill="#10151f" stroke="#2f3850"/>
    <text x="42" y="35" fill="#a8b2c7">MCP</text>
    <text x="156" y="35" fill="#6c7793">·</text>
    <rect x="188" y="0" width="132" height="54" rx="12" fill="#10151f" stroke="#2f3850"/>
    <text x="230" y="35" fill="#a8b2c7">A2A</text>
    <text x="344" y="35" fill="#6c7793">·</text>
    <rect x="376" y="0" width="156" height="54" rx="12" fill="#ffb547"/>
    <text x="420" y="35" fill="#0a0e14">A2CN</text>
    <text x="556" y="35" fill="#6c7793">·</text>
    <rect x="588" y="0" width="190" height="54" rx="12" fill="#10151f" stroke="#2f3850"/>
    <text x="618" y="35" fill="#a8b2c7">AP2/ACP</text>
  </g>
  <text x="92" y="544" fill="#a8b2c7" font-family="IBM Plex Mono, Menlo, monospace" font-size="22">Open protocol · v0.2.0 · Apache 2.0</text>
  <path d="M1008 114 1106 114 1106 212" fill="none" stroke="#5b9cff" stroke-width="10" stroke-linecap="round"/>
  <path d="M972 150 1070 150 1070 248" fill="none" stroke="#ffb547" stroke-width="10" stroke-linecap="round" opacity="0.85"/>
</svg>
